{"title":"True Grit 2010 SCR XViD SnF SAFCuk009+Fabreezy","uid":6076916,"size":1094586175,"categoryP":"video","categoryS":"movies","magnet":"?xt=urn:btih:a063fd8d1e140d9c634a1ec263ce6e2f2830ce60&amp;dn=True+Grit+2010+SCR+XViD+SnF+SAFCuk009%2BFabreezy&amp;tr=udp%3A%2F%2Ftracker.openbittorrent.com%3A80&amp;tr=udp%3A%2F%2Fopen.demonii.com%3A1337&amp;tr=udp%3A%2F%2Ftracker.coppersurfer.tk%3A6969&amp;tr=udp%3A%2F%2Fexodus.desync.com%3A6969","seeders":0,"leechers":1,"uploader":"SAFCukO09","files":2,"time":1293913645,"description":"Format : AVI\nFormat/Info : Audio Video Interleave\nFile size : 1.02 GiB\nDuration : 1h 50mn\nOverall bit rate : 1 323 Kbps\nWriting library : VirtualDub build 32839/release\n\nVideo\nID : 0\nFormat : MPEG-4 Visual\nFormat profile : Advanced Simple@L5\nFormat settings, BVOP : Yes\nFormat settings, QPel : No\nFormat settings, GMC : No warppoints\nFormat settings, Matrix : Custom\nCodec ID : XVID\nCodec ID/Hint : XviD\nDuration : 1h 50mn\nBit rate : 1 122 Kbps\nWidth : 720 pixels\nHeight : 304 pixels\nDisplay aspect ratio : 2.35:1\nFrame rate : 23.976 fps\nColor space : YUV\nChroma subsampling : 4:2:0\nBit depth : 8 bits\nScan type : Progressive\nBits/(Pixel*Frame) : 0.214\nStream size : 885 MiB (85%)\nWriting library : XviD 1.2.1 (UTC 2008-12-04)\n\nAudio\nID : 1\nFormat : MPEG Audio\nFormat version : Version 1\nFormat profile : Layer 3\nCodec ID : 55\nCodec ID/Hint : MP3\nDuration : 1h 50mn\nBit rate mode : Constant\nBit rate : 192 Kbps\nChannel(s) : 2 channels\nSampling rate : 44.1 KHz\nStream size : 151 MiB (15%)\nAlignment : Split accross interleaves\nInterleave, duration : 42 ms (1.00 video frame)\nInterleave, preload duration : 500 ms\n\n\n\n &lt;a href=&quot;\nhttp://www.imdb.com/title/tt1403865/&quot; rel=&quot;nofollow&quot; target=&quot;_NEW&quot;&gt;\nhttp://www.imdb.com/title/tt1403865/&lt;/a&gt;\n\n\n\n\nA tough U.S. Marshal helps a stubborn young woman track down her father's murderer.\nDirectors:\nEthan Coen, Joel Coen\nWriters:\nJoel Coen (screenplay), Ethan Coen (screenplay), and 1 more credit Ã‚Â»\nStars:\nJeff Bridges, Matt Damon and Hailee Steinfeld\n\n\n\nThanks to IMAGINE on this one bringing the goods again ..Well this is better late than never,i have no idea how many copies of this are out now but heres mine ...Blame new year wow what a night lol ..Ran a fe wfilters through it and this is the outcome if you want it enjoy ...\n\n\n\nGreetz to Imagine ,Flawl3ss ,Santi ,Vision ,Kingdom,BDK,DiGiTALiNK,LEGION,Classified,THC,WBZ,Rx ,Feel Free and to all who share\n\n","torrent":{"xt":"urn:btih:a063fd8d1e140d9c634a1ec263ce6e2f2830ce60","amp;dn":"True+Grit+2010+SCR+XViD+SnF+SAFCuk009%2BFabreezy","amp;tr":["udp%3A%2F%2Ftracker.openbittorrent.com%3A80","udp%3A%2F%2Fopen.demonii.com%3A1337","udp%3A%2F%2Ftracker.coppersurfer.tk%3A6969","udp%3A%2F%2Fexodus.desync.com%3A6969"],"infoHash":"a063fd8d1e140d9c634a1ec263ce6e2f2830ce60","infoHashBuffer":{"type":"Buffer","data":[160,99,253,141,30,20,13,156,99,74,30,194,99,206,110,47,40,48,206,96]},"announce":[],"urlList":[]}}